<svg xmlns="http://www.w3.org/2000/svg" xmlns:xlink="http://www.w3.org/1999/xlink" fill="none" version="1.1" width="35" height="35" viewBox="0 0 35 35"><defs><linearGradient x1="0.5" y1="0" x2="0.5" y2="1" id="master_svg0_1197_31119"><stop offset="0%" stop-color="#A1C0FF" stop-opacity="1"/><stop offset="100%" stop-color="#79A3F5" stop-opacity="1"/></linearGradient><clipPath id="master_svg1_1446_36401"><rect x="5.25" y="5.25" width="24.5" height="24.5" rx="0"/></clipPath></defs><g><g><g><ellipse cx="17.5" cy="17.5" rx="17.5" ry="17.5" fill="url(#master_svg0_1197_31119)" fill-opacity="1"/></g></g><g clip-path="url(#master_svg1_1446_36401)"><g><path d="M26.286749,12.2736249C26.286749,12.1143746,26.200998,11.955124900000001,26.053997,11.8816252L17.5279989,7.05512502C17.3932486,6.981625054,17.2217493,6.981625054,17.086998899999998,7.05512502L8.56100005,11.8693752C8.41400009,11.955125299999999,8.32825011,12.102124700000001,8.32825011,12.261375000000001C8.32825011,12.4206252,8.41400009,12.5798755,8.56100005,12.6533756L17.086998899999998,17.418626C17.1604977,17.455376,17.2339993,17.479875,17.3074989,17.479875C17.380999600000003,17.479875,17.454498299999997,17.467624,17.5279989,17.418626L26.053997,12.6533756C26.200996,12.5798755,26.286749,12.4328752,26.286749,12.2736249ZM17.3074989,15.8996258L10.5577495,12.261375000000001L17.3074989,8.5741253L23.946999,12.261375000000001L17.3074989,15.8996258ZM16.1682491,18.717124L8.53649962,14.6746235C8.40174955,14.6011243,8.23024958,14.6011243,8.09549969,14.6868739C7.960749805,14.7726235,7.875,14.919624800000001,7.875,15.0666246L7.875,22.710625C7.875,22.869875999999998,7.960749984,23.016874,8.09549987,23.102623L15.7272491,27.586124C15.8007498,27.622877,15.874250400000001,27.647375,15.96,27.647375C16.0334988,27.647375,16.119250299999997,27.622877,16.180500000000002,27.586124C16.3152494,27.500376,16.4009991,27.353374,16.4009991,27.194126L16.4009991,19.109125C16.413249999999998,18.949877,16.3152494,18.802875999999998,16.1682491,18.717124ZM14.906499400000001,25.307623L9.3940002,22.208374L9.3940002,16.6836252L14.906499400000001,19.635874L14.906499400000001,25.307623ZM18.44675,18.717124C18.299749,18.790625,18.201749,18.949875,18.201749,19.109124L18.201749,27.194124C18.201749,27.353374,18.287498,27.500374,18.42225,27.586124C18.49575,27.622873,18.569249,27.647373,18.64275,27.647373C18.716250000000002,27.647373,18.802,27.622873,18.875501,27.586124L26.50725,23.102623C26.642002,23.016874,26.727751,22.869873,26.727751,22.710623L26.727751,15.0788746C26.727751,14.919624800000001,26.642002,14.772625399999999,26.50725,14.6991248C26.372501,14.6256242,26.201002,14.6133738,26.06625,14.6868739L18.44675,18.717124ZM19.7085,19.635874L25.220999,16.6836252L25.220999,22.208374L19.7085,25.307625L19.7085,19.635874Z" fill="#FFFFFF" fill-opacity="1" style="mix-blend-mode:passthrough"/></g></g></g></svg>