<?xml version="1.0" standalone="no"?><!DOCTYPE svg PUBLIC "-//W3C//DTD SVG 1.1//EN" "http://www.w3.org/Graphics/SVG/1.1/DTD/svg11.dtd"><svg t="1752637888541" class="icon" viewBox="0 0 1024 1024" version="1.1" xmlns="http://www.w3.org/2000/svg" p-id="10729" xmlns:xlink="http://www.w3.org/1999/xlink" width="32" height="32"><path d="M708.288 608.448c-14.912 17.92-30.528 35.2-46.784 51.84 47.68-49.152 80.32-105.6 96.512-160.832 23.552-80.064 12.416-157.44-37.632-205.952-83.968-81.472-245.824-50.944-362.752 67.904l-2.048 2.112-0.064 0.128h-0.064l-0.96 1.024c-47.168 48.896-79.488 104.96-95.616 159.68-23.552 80.128-12.48 157.568 37.632 206.08 84.48 81.984 247.808 50.624 364.864-70.016-161.472 166.4-354.304 245.12-447.616 187.392 93.312 57.792 286.144-20.992 447.68-187.392l0.064-0.128c16.256-16.64 31.872-33.92 46.72-51.84z m66.88-91.648l108.544 109.696 69.312 70.144a539.904 539.904 0 0 1-143.744 158.016c-122.496 90.624-268.352 121.92-396.736 97.28-83.2-16-159.04-55.68-216.32-117.76l-0.192-0.192-0.384-0.384a343.36 343.36 0 0 1-9.664-10.944c-49.408-64.576-24.704-187.776 55.808-315.648L133.248 397.248 64 327.232a540.48 540.48 0 0 1 143.616-157.888C330.112 78.72 475.968 47.424 604.288 72.128c84.352 16.192 161.152 56.64 218.752 120.256l-0.832-0.896a28.16 28.16 0 0 0-1.472-1.408c-25.28-24.576-61.76-34.816-105.024-32.32 43.264-2.496 79.68 7.68 105.024 32.32a28.864 28.864 0 0 1 2.304 2.304l6.4 7.232c51.2 64 26.88 188.16-54.272 317.184zM355.456 363.648z m311.168-51.2l0.064-0.128-0.064 0.128z" fill="#000000" p-id="10730"></path></svg>