<?xml version="1.0" standalone="no"?><!DOCTYPE svg PUBLIC "-//W3C//DTD SVG 1.1//EN" "http://www.w3.org/Graphics/SVG/1.1/DTD/svg11.dtd"><svg t="1774845903414" class="icon" viewBox="0 0 1024 1024" version="1.1" xmlns="http://www.w3.org/2000/svg" p-id="19102" width="32" height="32" xmlns:xlink="http://www.w3.org/1999/xlink"><path d="M146.152727 84.992c6.190545-0.558545 12.194909 1.861818 18.013091 4.514909A796.113455 796.113455 0 0 1 298.077091 166.632727c105.890909 75.543273 197.538909 178.501818 259.025454 294.446546 11.357091 21.410909 23.086545 45.940364 35.23491 73.541818 13.358545 30.533818 24.669091 62.370909 31.930181 94.952727 1.489455 6.516364 2.327273 10.472727 2.420364 11.915637 1.861818 16.011636-8.238545 37.794909-28.113455 33.186909a123.112727 123.112727 0 0 1-12.474181-4.049455 1555.874909 1555.874909 0 0 0-28.299637-10.007273c-107.706182-36.770909-222.161455-35.048727-328.983272 3.025455a163.84 163.84 0 0 0-17.221819 7.540364 921.6 921.6 0 0 1-44.171636 20.526545c-11.915636 5.12-25.460364 8.424727-38.493091 8.424727a5.585455 5.585455 0 0 1-2.932364-0.837818 0.558545 0.558545 0 0 1-0.279272-0.465454 9.774545 9.774545 0 0 1 1.256727-7.028364c22.900364-33.978182 43.473455-70.842182 57.530182-109.568 46.824727-128.930909 43.287273-270.336-12.613818-395.915636a270.475636 270.475636 0 0 0-12.660364-24.436364c-9.355636-16.290909-19.083636-32.302545-29.137455-48.128-2.978909-4.654545-4.980364-9.076364-3.584-14.429091 2.048-7.959273 11.869091-13.637818 19.595637-14.336zM176.826182 862.580364c-9.448727-7.726545-16.896-18.385455-26.949818-25.227637-24.203636-16.337455-51.013818-3.258182-71.773091 11.915637-15.546182 11.357091-27.927273 20.852364-43.194182 29.463272a74.100364 74.100364 0 0 1-20.712727 7.773091c-4.375273 0.930909-9.355636 1.861818-12.194909-2.699636-2.56-4.096-1.675636-10.891636 0-15.266909a9.774545 9.774545 0 0 1 4.096-5.073455l69.771636-49.943272c8.797091-6.376727-2.792727-20.293818-6.562909-26.391273a34.722909 34.722909 0 0 1-4.840727-25.274182c2.001455-11.031273 9.821091-20.107636 21.364363-21.317818 32.488727-3.397818 65.629091-2.978909 98.397091-5.725091 27.927273-2.327273 45.800727-3.630545 53.666909-4.002909 24.157091-1.117091 40.866909-2.001455 50.222546-2.699637 24.389818-1.722182 48.779636-2.932364 73.169454-4.235636a260.654545 260.654545 0 0 0 9.960727-0.744727c24.669091-2.327273 40.587636-3.677091 47.802182-3.956364a2164.642909 2164.642909 0 0 0 97.186909-5.259636 2200.994909 2200.994909 0 0 1 87.04-5.585455c4.328727-0.186182 8.378182-0.372364 12.148364-0.651636 48.407273-3.118545 96.768-6.283636 145.128727-9.495273 19.688727-1.303273 39.424-2.327273 59.112728-2.978909 2.56-0.093091 5.678545-0.325818 8.331636-0.698182a456.145455 456.145455 0 0 1 30.487273-3.025454c1.675636-0.139636 5.352727-0.651636 11.077818-1.629091 10.193455-1.675636 41.751273-4.887273 39.936 13.963636-0.930909 10.053818-10.938182 19.735273-18.245818 25.879273a265.309091 265.309091 0 0 1-29.184 21.131636c-11.682909 7.261091-23.738182 14.196364-35.095273 21.922909-24.296727 16.430545-48.407273 33.838545-73.309091 48.500364-16.616727 9.728-33.419636 19.176727-50.315636 28.346182a16.104727 16.104727 0 0 0-1.954909 1.210182c-0.418909 0.279273-0.418909 0.605091 0 0.930909 24.250182 19.874909 54.225455-8.564364 70.981818-24.203637 4.049455-3.770182 7.168-6.376727 9.309091-7.819636 16.942545-11.403636 41.565091-12.986182 61.346909-13.218909 4.980364 0 9.448727 0.930909 14.196363 2.048 42.635636 10.24 79.034182 35.374545 106.821819 69.538909 1.768727 2.187636 2.234182 4.096 0.651636 6.423273-2.699636 4.002909-7.633455 5.492364-12.241455 5.492363-16.570182 0-31.045818-5.632-43.426909-16.849454-11.217455-10.146909-26.996364-24.576-42.589091-33.419637a54.830545 54.830545 0 0 0-11.077818-5.026909c-20.712727-6.050909-41.984 5.492364-58.414545 17.221819l-32.023273 22.807272c-6.097455 4.328727-13.358545 8.145455-21.736727 11.403637-37.934545 14.661818-67.072-11.776-95.045818-32.302546-13.405091-9.867636-29.137455-18.897455-46.266182-19.223273-9.216-0.186182-21.085091 1.908364-28.718546 7.633455-35.234909 26.391273-73.076364 60.043636-121.204363 41.239273-16.802909-6.516364-29.602909-17.547636-42.821819-28.811637-10.426182-8.843636-22.993455-17.92-36.910545-19.642181-16.663273-2.001455-31.464727 6.190545-44.730182 15.127272-22.667636 15.266909-45.707636 32.395636-74.007273 34.350546-28.299636 1.908364-54.644364-3.956364-76.660363-21.922909z" fill="#FF7C0E" p-id="19103"></path><path d="M396.706909 207.872c20.666182 13.312 39.330909 27.927273 55.901091 43.845818 31.138909 29.928727 59.997091 61.533091 84.712727 96.674909 50.176 71.493818 87.412364 154.018909 116.270546 236.730182 4.794182 13.684364 9.495273 27.368727 14.196363 41.099636 5.678545 16.663273 21.038545 29.509818 39.191273 28.392728 4.514909-0.232727 11.217455-0.884364 16.197818-0.930909a144.756364 144.756364 0 0 1 66.001455 14.429091c6.050909 2.885818 12.893091 8.192 19.037091 1.815272 7.633455-7.912727 5.492364-15.592727 2.420363-24.855272-44.450909-135.633455-121.437091-256.465455-227.281454-352.349091A913.594182 913.594182 0 0 0 465.314909 202.007273a255.441455 255.441455 0 0 0-41.099636-21.736728c-10.705455-4.375273-24.529455-5.12-31.278546 6.376728-4.375273 7.447273-4.002909 16.197818 3.723637 21.178182z" fill="#FF7C0E" opacity=".6" p-id="19104"></path></svg>