<?xml version="1.0" standalone="no"?><!DOCTYPE svg PUBLIC "-//W3C//DTD SVG 1.1//EN" "http://www.w3.org/Graphics/SVG/1.1/DTD/svg11.dtd"><svg t="1774241194331" class="icon" viewBox="0 0 1024 1024" version="1.1" xmlns="http://www.w3.org/2000/svg" p-id="14654" xmlns:xlink="http://www.w3.org/1999/xlink" width="18" height="18"><path d="M879.616 354.816v-52.224c0-29.184-23.552-52.736-52.736-52.736H512v-52.736c0-29.184-23.552-52.736-52.736-52.736h-314.88c-29.184 0-52.736 23.552-52.736 52.736v629.76c0 1.024 0.512 2.048 0.512 3.584h0.512c2.048 26.624 23.04 49.152 51.2 49.152H795.136c25.088 0 46.592-17.92 51.712-42.496l83.968-419.84c6.656-31.744-18.432-61.952-51.2-62.464z m-735.232 204.8v-335.872c0-14.336 11.776-26.112 26.112-26.112h262.656c14.336 0 26.112 11.776 26.112 26.112V276.48c0 14.336 11.776 26.112 26.112 26.112h314.88c14.336 0 26.112 11.776 26.112 26.112v26.112H228.864c-25.088 0-46.592 17.92-51.712 42.496l-32.768 162.304z m651.264 247.296c-2.56 12.288-13.312 20.48-25.6 20.48H176.64c-16.384 0-29.184-14.848-25.6-31.232l73.216-367.616c2.56-12.288 13.312-20.992 25.6-20.992H849.92c16.896 0 29.184 15.36 26.112 31.744l-80.384 367.616z" fill="#000000" p-id="14655"></path></svg>