<svg xmlns="http://www.w3.org/2000/svg" xmlns:xlink="http://www.w3.org/1999/xlink" fill="none" version="1.1" width="50" height="50" viewBox="0 0 50 50"><defs><clipPath id="master_svg0_2531_021934"><rect x="0" y="0" width="50" height="50" rx="0"/></clipPath></defs><g clip-path="url(#master_svg0_2531_021934)"><path d="M9.375,0L31.257498,0L46.875,15.625L46.875,43.75C46.875,47.201874,44.076874,50,40.625,50L9.375,50C5.923125300000001,50,3.125,47.201874,3.125,43.75L3.125,6.25C3.125,2.798125,5.923125300000001,0,9.375,0Z" fill="#8043FF" fill-opacity="1" style="mix-blend-mode:passthrough"/><path d="M31.25,0L46.875,15.625L37.5,15.625C34.0481253,15.625,31.25,12.826875,31.25,9.375L31.25,0Z" fill="#A57AFF" fill-opacity="1" style="mix-blend-mode:passthrough"/><path d="M19.925233875,33.719803687500004L19.925233875,21.2141797575C19.925233875,20.6829295175,20.365858575,20.2529296875,20.909609275,20.2529296875L31.732734375,20.2529296875C32.276483375,20.2529296875,32.717107375,20.6835553675,32.717107375,21.2141797575L32.717107375,32.7548046875C32.717107375,32.7810546875,32.715860375,32.8066776875,32.713981375,32.8316796875C32.715856375,32.892303687500004,32.717107375,32.9566796875,32.717107375,33.022929687499996L32.717107375,34.1941786875C32.717107375,36.0529286875,31.175233375,37.5591796875,29.273357375,37.5591796875L28.288983375,37.5591796875C26.387109375,37.5591796875,24.845233375,36.0529286875,24.845233375,34.1941786875C24.845233375,32.3360546875,26.387107375,30.8291776875,28.288983375,30.8291776875L30.471483375,30.8291776875C30.570858375,30.8291776875,30.662733375,30.831052687499998,30.748983375,30.8354276875L30.748983375,26.021678887500002L21.893358675,26.021678887500002L21.893358675,37.078553687500005C21.893358675,38.9373056875,20.351483375,40.4435556875,18.449609275,40.4435556875L17.465233775,40.4435556875C15.563358275,40.4435556875,14.021484375,38.9373056875,14.021484375,37.078553687500005C14.021484375,35.2204306875,15.563359775,33.7135546875,17.465235475,33.7135546875L19.647735575,33.7135546875C19.747735975,33.7135546875,19.838985875,33.7154286875,19.925233875,33.719803687500004Z" fill="#EADFFF" fill-opacity="1" style="mix-blend-mode:passthrough"/></g></svg>
