<svg xmlns="http://www.w3.org/2000/svg" xmlns:xlink="http://www.w3.org/1999/xlink" fill="none" version="1.1" width="25" height="12.5" viewBox="0 0 25 12.5"><defs><clipPath id="master_svg0_2196_92070"><rect x="0" y="0" width="25" height="12.5" rx="0"/></clipPath></defs><g clip-path="url(#master_svg0_2196_92070)"><path d="M1.5625,0L23.437502,0C24.375,0,25,0.62500006,25,1.5625L25,10.937501C25,11.875001,24.375,12.5,23.437502,12.5L1.5625,12.5C0.62500006,12.5,0,11.875001,0,10.937501L0,1.5625C0,0.78125,0.62500006,0,1.5625,0Z" fill="#E0620D" fill-opacity="1" style="mix-blend-mode:passthrough"/><path d="M5.78125,10.1572279625C5.46875,10.1572279625,5.15625,9.8447265625,5,9.2197279625L2.34375,2.1884765625L4.3749994999999995,2.1884765625L6.2499994999999995,7.0322265625L9.21875,2.1884765625L11.40625,2.1884765625L6.8750005,9.2197279625C6.406251,10.000977562500001,6.0937505000000005,10.1572279625,5.78125,10.1572279625ZM10.781249,10.000977562500001L11.874999,2.3447266625L13.749999,2.3447266625L12.656249,10.000977562500001L10.781249,10.000977562500001ZM22.65625,5.157226762500001C22.499998,5.938476762500001,22.187498,6.7197265625,21.406248,7.3447270625C20.781248,7.8134765625,19.999998,8.125977062499999,19.218748,8.125977062499999L15.937498,8.125977062499999L15.624998,10.000977562500001L13.749999,10.000977562500001L14.374999,6.0947272625L19.687498,6.0947272625C19.999998,6.0947272625,20.156248,5.9384770625000005,20.3125,5.7822272625C20.468748,5.6259765625,20.624998,5.3134772625,20.624998,5.1572270625000005C20.624998,4.844726762500001,20.624998,4.6884772625,20.468748,4.5322270625000005C20.3125,4.3759770625000005,19.999998,4.2197270625000005,19.843748,4.2197270625000005L14.531248,4.2197270625000005L16.093747,2.18847681085271L19.999998,2.18847681085271C20.781248,2.18847681085271,21.562498,2.5009767725,22.031248,2.9697268625C22.65625,3.7509769625000002,22.812498,4.5322270625000005,22.65625,5.157226762500001Z" fill="#FFFFFF" fill-opacity="1" style="mix-blend-mode:passthrough"/></g></svg>
