<svg xmlns="http://www.w3.org/2000/svg" xmlns:xlink="http://www.w3.org/1999/xlink" fill="none" version="1.1" width="32" height="32" viewBox="0 0 32 32"><defs><clipPath id="master_svg0_1765_57111"><rect x="0" y="0" width="32" height="32" rx="0"/></clipPath></defs><g clip-path="url(#master_svg0_1765_57111)"><g><path d="M10,0C10,0,22,0,22,0C27.522848,0,32,4.4771523,32,10C32,10,32,22,32,22C32,27.522848,27.522848,32,22,32C22,32,10,32,10,32C4.4771523,32,0,27.522848,0,22C0,22,0,10,0,10C0,4.4771523,4.4771523,0,10,0Z" fill="#0256FF" fill-opacity="1"/></g><g><path d="M11.1728425,22.468204C11.1728425,22.468204,13.4198422,20.214205,13.4198422,20.214205C13.4198422,20.214205,21.944843,20.214205,21.944843,20.214205C22.25351,20.214205,22.517842,20.324204,22.737842999999998,20.544204999999998C22.961843000000002,20.764205,23.074176,21.028869999999998,23.074842,21.338203C23.074842,21.651536999999998,22.962509,21.918204,22.737842999999998,22.138205C22.517842,22.358204999999998,22.25351,22.468204,21.944843,22.468204C21.944843,22.468204,11.1728425,22.468204,11.1728425,22.468204ZM10.4228425,21.839205C10.4228425,21.839205,8.57684195,22.531204000000002,8.57684195,22.531204000000002C8.41950864,22.591205000000002,8.27350891,22.557205,8.13884223,22.429205C8.074961618,22.374142,8.030119218,22.300296,8.01072275,22.218220000000002C7.9913262809,22.136144,7.9983684812,22.050038,8.030842418,21.972203999999998C8.030842418,21.972203999999998,8.71584189,20.132204,8.71584189,20.132204C8.71584189,20.132204,16.7898426,12.0452044,16.7898426,12.0452044C16.7898426,12.0452044,18.497843,13.7522042,18.497843,13.7522042C18.497843,13.7522042,10.4228425,21.839205,10.4228425,21.839205ZM19.329844,12.9212048C19.329844,12.9212048,17.621843300000002,11.2132047,17.621843300000002,11.2132047C17.621843300000002,11.2132047,18.510843,10.33120474,18.510843,10.33120474C18.722177000000002,10.12320474,18.948509,10.013204821,19.189842,10.0012048213C19.435176,9.987871488,19.659509999999997,10.085204631,19.862842999999998,10.29320464C19.862842999999998,10.29320464,20.255842,10.69320428,20.255842,10.69320428C20.458508000000002,10.8965376,20.555842,11.118538000000001,20.547842,11.3592046C20.543841999999998,11.5958713,20.436175,11.8202049,20.224842000000002,12.0322049C20.224842000000002,12.0322049,19.329844,12.9212048,19.329844,12.9212048Z" fill="#FFFFFF" fill-opacity="1"/></g></g></svg>