<svg xmlns="http://www.w3.org/2000/svg" xmlns:xlink="http://www.w3.org/1999/xlink" fill="none" version="1.1" width="16" height="16" viewBox="0 0 16 16"><defs><clipPath id="master_svg0_2483_020414"><rect x="0" y="16" width="16" height="16" rx="0"/></clipPath></defs><g transform="matrix(1,0,0,-1,0,32)" clip-path="url(#master_svg0_2483_020414)"><path d="M8.000000499999999,18C11.3134995,18,14.000001,20.6865001,14.000001,24.0000005C14.000001,27.3134995,11.3134995,30.000000999999997,8.000000499999999,30.000000999999997C4.6865008,30.000000999999997,2,27.3135014,2,24.0000005C2,20.6864996,4.6865001,18,8.000000499999999,18ZM8.000000499999999,19C5.2389998,19,3,21.238999800000002,3,24.0000005C3,26.7609997,5.2390006,29.000000999999997,8.000000499999999,29.000000999999997C10.7609997,29.000000999999997,13.000001,26.7609997,13.000001,24.0000005C13.000001,21.2390006,10.7609997,19,8.000000499999999,19ZM8.1070004,25.7145009C8.521214,25.7145009,8.8570004,26.0502882,8.8570004,26.4645004C8.8570004,26.878713599999998,8.521214,27.2145004,8.1070004,27.2145004C7.6927867,27.2145004,7.3570004,26.878713599999998,7.3570004,26.4645004C7.3570004,26.0502882,7.6927867,25.7145009,8.1070004,25.7145009ZM8.0715003,21.0000002C8.3476424,21.0000002,8.5715003,21.2238574,8.5715003,21.5000002L8.5715003,24.3570004C8.5715003,24.6331429,8.3476424,24.8570004,8.0715003,24.8570004C7.7953577,24.8570004,7.5715003,24.6331429,7.5715003,24.3570004L7.5715003,21.5000002C7.5715003,21.2238574,7.7953577,21.0000002,8.0715003,21.0000002Z" fill="#88939C" fill-opacity="1"/></g></svg>