<svg xmlns="http://www.w3.org/2000/svg" xmlns:xlink="http://www.w3.org/1999/xlink" fill="none" version="1.1" width="12.141616821289062" height="13" viewBox="0 0 12.141616821289062 13"><path d="M6.5773253,8.3287783L10.412393,4.4937119C10.607767,4.2983365,10.924533,4.2983365,11.119908,4.4937119C11.315286,4.6890879,11.315286,5.0058541,11.119908,5.2012296L6.4808469,9.8402929C6.2565579,10.056758,5.9011374,10.056758,5.6768498,9.8402929L1.0217075,5.2092695C0.82633209,5.0138941,0.82633209,4.6971283,1.0217078,4.5017514C1.2170831,4.3063765,1.5338492,4.3063765,1.7292247,4.5017514L5.56429,8.3368187L5.56429,0.57020652C5.5259376,0.26760891,5.7617707,0,6.0667887,0C6.3718076,0,6.6076388,0.26760903,6.5692868,0.57020652L6.5773253,8.3287783ZM0.44282976,13C0.18973666,12.967922,0,12.752619,0,12.497503C1.1980488e-7,12.242387,0.18973666,12.027081,0.44282976,11.995005L11.698788,11.995005C11.95188,12.027081,12.141617,12.242387,12.141617,12.497503C12.141617,12.752619,11.95188,12.967922,11.698788,13L0.44282976,13Z" fill="#FFFFFF" fill-opacity="1" style="mix-blend-mode:passthrough"/></svg>