<svg xmlns="http://www.w3.org/2000/svg" xmlns:xlink="http://www.w3.org/1999/xlink" fill="none" version="1.1" width="52" height="51" viewBox="0 0 52 51"><defs><clipPath id="master_svg0_2449_016091"><rect x="0" y="0" width="52" height="51" rx="8"/><path d="M4.6142964,0.7517581Q5.5461073,0.31650305,6.5577087,0.13108675L6.7379947,1.1147012Q5.8528433,1.27694,5.0375099,1.657788L4.6142964,0.7517581ZM1.5221208,3.3056331Q2.1236756,2.4755323,2.9151011,1.8239331L3.5507135,2.5959411Q2.858216,3.166091,2.3318553,3.8924291L1.5221208,3.3056331ZM0.058243241,7.0364132Q0.18249592,6.0123386,0.56246936,5.0532837L1.4921607,5.4216232Q1.1596841,6.2607956,1.0509629,7.1568618L0.058243241,7.0364132ZM0,11L0,9L1,9L1,11L0,11ZM0,15L0,13L1,13L1,15L0,15ZM0,19L0,17L1,17L1,19L0,19ZM0,23L0,21L1,21L1,23L0,23ZM0,27L0,25L1,25L1,27L0,27ZM0,31L0,29L1,29L1,31L0,31ZM0,35L0,33L1,33L1,35L0,35ZM0,39L0,37L1,37L1,39L0,39ZM0,43L0,41L1,41L1,43L0,43ZM0.9554736,46.791393Q0.47038537,45.890083,0.22784376,44.895676L1.1993645,44.658718Q1.411589,45.528831,1.8360384,46.317471L0.9554736,46.791393ZM3.6871595,49.737911Q2.8252523,49.186214,2.1299701,48.435326L2.8637214,47.755905Q3.4720907,48.412926,4.2262726,48.895676L3.6871595,49.737911ZM7.4805713,50.98312Q6.4684486,50.917267,5.5047836,50.600918L5.81668,49.650803Q6.6598864,49.927605,7.5455017,49.985229L7.4805713,50.98312ZM11.456198,51L9.4561977,51L9.4561977,50L11.456198,50L11.456198,51ZM15.456198,51L13.456198,51L13.456198,50L15.456198,50L15.456198,51ZM19.456198,51L17.456198,51L17.456198,50L19.456198,50L19.456198,51ZM23.456198,51L21.456198,51L21.456198,50L23.456198,50L23.456198,51ZM27.456198,51L25.456198,51L25.456198,50L27.456198,50L27.456198,51ZM31.456198,51L29.456198,51L29.456198,50L31.456198,50L31.456198,51ZM35.4562,51L33.4562,51L33.4562,50L35.4562,50L35.4562,51ZM39.4562,51L37.4562,51L37.4562,50L39.4562,50L39.4562,51ZM43.4562,51L41.4562,51L41.4562,50L43.4562,50L43.4562,51ZM47.359482,50.260433Q46.425884,50.692421,45.413368,50.874161L45.236702,49.889893Q46.122631,49.730877,46.939556,49.352882L47.359482,50.260433ZM50.460442,47.718338Q49.855782,48.546249,49.061897,49.194939L48.429161,48.42057Q49.123817,47.852962,49.652885,47.128551L50.460442,47.718338ZM51.938229,43.992245Q51.810299,45.015732,51.426941,45.973305L50.498577,45.601646Q50.834007,44.763771,50.94595,43.86821L51.938229,43.992245ZM52,40.029217L52,42.029217L51,42.029217L51,40.029217L52,40.029217ZM52,36.029217L52,38.029217L51,38.029217L51,36.029217L52,36.029217ZM52,32.029217L52,34.029217L51,34.029217L51,32.029217L52,32.029217ZM52,28.029217L52,30.029217L51,30.029217L51,28.029217L52,28.029217ZM52,24.029217L52,26.029217L51,26.029217L51,24.029217L52,24.029217ZM52,20.029217L52,22.029217L51,22.029217L51,20.029217L52,20.029217ZM52,16.029217L52,18.029217L51,18.029217L51,16.029217L52,16.029217ZM52,12.029216L52,14.029216L51,14.029216L51,12.029216L52,12.029216ZM52,8.0292158L52,10.029216L51,10.029216L51,8.0292158L52,8.0292158ZM51.030647,4.1829314Q51.518841,5.0821285,51.765007,6.0752482L50.794388,6.315856Q50.578972,5.4468536,50.151817,4.6600504L51.030647,4.1829314ZM48.287994,1.2462523Q49.151787,1.794677,49.849743,2.5428452L49.118523,3.2249858Q48.507812,2.5703378,47.751999,2.0904717L48.287994,1.2462523ZM44.491241,0.01509663Q45.502434,0.0773063,46.466194,0.38961905L46.157921,1.3409173Q45.314621,1.067643,44.429836,1.0132096L44.491241,0.01509663ZM40.51461,0L42.51461,0L42.51461,1L40.51461,1L40.51461,0ZM36.51461,0L38.51461,0L38.51461,1L36.51461,1L36.51461,0ZM32.51461,0L34.51461,0L34.51461,1L32.51461,1L32.51461,0ZM28.514608,0L30.514608,0L30.514608,1L28.514608,1L28.514608,0ZM24.514608,0L26.514608,0L26.514608,1L24.514608,1L24.514608,0ZM20.514608,0L22.514608,0L22.514608,1L20.514608,1L20.514608,0ZM16.514608,0L18.514608,0L18.514608,1L16.514608,1L16.514608,0ZM12.514608,0L14.514608,0L14.514608,1L12.514608,1L12.514608,0ZM10.514608,0L10.514608,1L8.5146084,1L8.5146084,0L10.514608,0Z" fill-rule="evenodd"/></clipPath><clipPath id="master_svg1_2449_016097"><rect x="18" y="8" width="16" height="16" rx="0"/></clipPath></defs><g clip-path="url(#master_svg0_2449_016091)"><rect x="0" y="0" width="52" height="51" rx="8" fill="#F7F7F7" fill-opacity="1"/><g clip-path="url(#master_svg1_2449_016097)"><path d="M31.5,15.5L26.5,15.5L26.5,10.5C26.5,10.22385764,26.2761421,10,26,10C25.7238574,10,25.5,10.22385764,25.5,10.5L25.5,15.5L20.5,15.5C20.22385764,15.5,20,15.7238574,20,16C20,16.2761421,20.22385764,16.5,20.5,16.5L25.5,16.5L25.5,21.5C25.5,21.776142,25.7238574,22,26,22C26.2761421,22,26.5,21.776142,26.5,21.5L26.5,16.5L31.5,16.5C31.776142,16.5,32,16.2761421,32,16C32,15.7238574,31.776142,15.5,31.5,15.5Z" fill="#A5A5A5" fill-opacity="1"/></g><g><path d="M18.848,27.7559996C18.4640002,28.6679997,17.72,29.448,16.628,30.0959997L17.108,30.719999299999998C17.5640001,30.432000199999997,17.9720001,30.1199999,18.3320003,29.7840004C18.6680002,30.1440001,19.0760002,30.479999499999998,19.544000099999998,30.7919998C18.704,31.188000000000002,17.6600001,31.5,16.424,31.716L16.8080001,32.412C18.1760001,32.112,19.316,31.716,20.2400002,31.224C21.0799999,31.691999,22.0760002,32.076,23.2399998,32.388L23.6960001,31.740000000000002C22.6640005,31.5,21.7519999,31.176001,20.948,30.7919998C21.631999999999998,30.3120003,22.1359997,29.7480001,22.472000100000002,29.1119995L22.472000100000002,28.5120001L19.3039999,28.5120001C19.4240003,28.296,19.52,28.0799999,19.616000200000002,27.8520002L18.848,27.7559996ZM20.2400002,30.4200001C19.6880002,30.0839996,19.1960001,29.711999900000002,18.776,29.3039999C18.8000002,29.2560005,18.836,29.2080002,18.883999799999998,29.1599998L21.6080003,29.1599998C21.2839999,29.6399994,20.8280001,30.0599995,20.2400002,30.4200001ZM17.8640001,33.647999999999996L17.5280001,34.296C19.136000199999998,34.608000000000004,20.684,35.052,22.1719999,35.628L22.46,34.932C20.9960003,34.38,19.46,33.948,17.8640001,33.647999999999996ZM19.112000000000002,31.968L18.7160001,32.544C19.6040001,32.832,20.455999900000002,33.216,21.2839999,33.72L21.6919999,33.096000000000004C20.9120002,32.664,20.0479999,32.28,19.112000000000002,31.968ZM24.896,26.724L15.104,26.724L15.104,37.200001L15.943999999999999,37.200001L15.943999999999999,36.708L24.055999999999997,36.708L24.055999999999997,37.200001L24.896,37.200001L24.896,26.724ZM15.943999999999999,35.94L15.943999999999999,27.4919996L24.055999999999997,27.4919996L24.055999999999997,35.94L15.943999999999999,35.94ZM29.72,30.2159996L36.788,30.2159996L36.788,29.3880005L34.088001,29.3880005L34.088001,26.1960001L33.236000000000004,26.1960001L33.236000000000004,29.3880005L29.72,29.3880005L29.72,26.5319996L28.844,26.5319996L28.844,30.9359999C28.82,33.528,28.183999999999997,35.424,26.924,36.612L27.584,37.188C28.604,36.228,29.264,34.836,29.552,33.036L34.375999,33.036L34.375999,37.223999L35.239999999999995,37.223999L35.239999999999995,32.196L29.66,32.196C29.683999999999997,31.8,29.708,31.380000000000003,29.72,30.9359999L29.72,30.2159996Z" fill="#6A6A6A" fill-opacity="1"/></g><path d="M4.6142964,0.7517581Q5.5461073,0.31650305,6.5577087,0.13108675L6.7379947,1.1147012Q5.8528433,1.27694,5.0375099,1.657788L4.6142964,0.7517581ZM1.5221208,3.3056331Q2.1236756,2.4755323,2.9151011,1.8239331L3.5507135,2.5959411Q2.858216,3.166091,2.3318553,3.8924291L1.5221208,3.3056331ZM0.058243241,7.0364132Q0.18249592,6.0123386,0.56246936,5.0532837L1.4921607,5.4216232Q1.1596841,6.2607956,1.0509629,7.1568618L0.058243241,7.0364132ZM0,11L0,9L1,9L1,11L0,11ZM0,15L0,13L1,13L1,15L0,15ZM0,19L0,17L1,17L1,19L0,19ZM0,23L0,21L1,21L1,23L0,23ZM0,27L0,25L1,25L1,27L0,27ZM0,31L0,29L1,29L1,31L0,31ZM0,35L0,33L1,33L1,35L0,35ZM0,39L0,37L1,37L1,39L0,39ZM0,43L0,41L1,41L1,43L0,43ZM0.9554736,46.791393Q0.47038537,45.890083,0.22784376,44.895676L1.1993645,44.658718Q1.411589,45.528831,1.8360384,46.317471L0.9554736,46.791393ZM3.6871595,49.737911Q2.8252523,49.186214,2.1299701,48.435326L2.8637214,47.755905Q3.4720907,48.412926,4.2262726,48.895676L3.6871595,49.737911ZM7.4805713,50.98312Q6.4684486,50.917267,5.5047836,50.600918L5.81668,49.650803Q6.6598864,49.927605,7.5455017,49.985229L7.4805713,50.98312ZM11.456198,51L9.4561977,51L9.4561977,50L11.456198,50L11.456198,51ZM15.456198,51L13.456198,51L13.456198,50L15.456198,50L15.456198,51ZM19.456198,51L17.456198,51L17.456198,50L19.456198,50L19.456198,51ZM23.456198,51L21.456198,51L21.456198,50L23.456198,50L23.456198,51ZM27.456198,51L25.456198,51L25.456198,50L27.456198,50L27.456198,51ZM31.456198,51L29.456198,51L29.456198,50L31.456198,50L31.456198,51ZM35.4562,51L33.4562,51L33.4562,50L35.4562,50L35.4562,51ZM39.4562,51L37.4562,51L37.4562,50L39.4562,50L39.4562,51ZM43.4562,51L41.4562,51L41.4562,50L43.4562,50L43.4562,51ZM47.359482,50.260433Q46.425884,50.692421,45.413368,50.874161L45.236702,49.889893Q46.122631,49.730877,46.939556,49.352882L47.359482,50.260433ZM50.460442,47.718338Q49.855782,48.546249,49.061897,49.194939L48.429161,48.42057Q49.123817,47.852962,49.652885,47.128551L50.460442,47.718338ZM51.938229,43.992245Q51.810299,45.015732,51.426941,45.973305L50.498577,45.601646Q50.834007,44.763771,50.94595,43.86821L51.938229,43.992245ZM52,40.029217L52,42.029217L51,42.029217L51,40.029217L52,40.029217ZM52,36.029217L52,38.029217L51,38.029217L51,36.029217L52,36.029217ZM52,32.029217L52,34.029217L51,34.029217L51,32.029217L52,32.029217ZM52,28.029217L52,30.029217L51,30.029217L51,28.029217L52,28.029217ZM52,24.029217L52,26.029217L51,26.029217L51,24.029217L52,24.029217ZM52,20.029217L52,22.029217L51,22.029217L51,20.029217L52,20.029217ZM52,16.029217L52,18.029217L51,18.029217L51,16.029217L52,16.029217ZM52,12.029216L52,14.029216L51,14.029216L51,12.029216L52,12.029216ZM52,8.0292158L52,10.029216L51,10.029216L51,8.0292158L52,8.0292158ZM51.030647,4.1829314Q51.518841,5.0821285,51.765007,6.0752482L50.794388,6.315856Q50.578972,5.4468536,50.151817,4.6600504L51.030647,4.1829314ZM48.287994,1.2462523Q49.151787,1.794677,49.849743,2.5428452L49.118523,3.2249858Q48.507812,2.5703378,47.751999,2.0904717L48.287994,1.2462523ZM44.491241,0.01509663Q45.502434,0.0773063,46.466194,0.38961905L46.157921,1.3409173Q45.314621,1.067643,44.429836,1.0132096L44.491241,0.01509663ZM40.51461,0L42.51461,0L42.51461,1L40.51461,1L40.51461,0ZM36.51461,0L38.51461,0L38.51461,1L36.51461,1L36.51461,0ZM32.51461,0L34.51461,0L34.51461,1L32.51461,1L32.51461,0ZM28.514608,0L30.514608,0L30.514608,1L28.514608,1L28.514608,0ZM24.514608,0L26.514608,0L26.514608,1L24.514608,1L24.514608,0ZM20.514608,0L22.514608,0L22.514608,1L20.514608,1L20.514608,0ZM16.514608,0L18.514608,0L18.514608,1L16.514608,1L16.514608,0ZM12.514608,0L14.514608,0L14.514608,1L12.514608,1L12.514608,0ZM10.514608,0L10.514608,1L8.5146084,1L8.5146084,0L10.514608,0Z" fill-rule="evenodd" fill="#C4C4C4" fill-opacity="1"/></g></svg>