<svg xmlns="http://www.w3.org/2000/svg" xmlns:xlink="http://www.w3.org/1999/xlink" fill="none" version="1.1" width="15.58203125" height="13.6103515625" viewBox="0 0 15.58203125 13.6103515625"><path d="M14.398987,13.61L11.045798,13.61C10.749928,13.61,10.552682,13.412754,10.552682,13.116884C10.552682,12.821014,10.749928,12.623768,11.045798,12.623768L14.300364,12.623768C14.398988,12.623768,14.49761,12.623768,14.596233,12.525145C14.596233,12.42652,14.694858,12.42652,14.694858,12.327898L14.694858,1.282101C14.694858,1.1834779,14.694858,1.0848546,14.596233,1.0848546C14.49761,1.0848546,14.49761,0.98623145,14.398988,0.98623145L1.2821015,0.98623145C1.0848551,0.98623145,0.9862318,1.0848546,0.9862318,1.282101L0.9862318,5.2270284C0.9862318,5.5228982,0.78898549,5.7201443,0.49311587,5.7201443C0.19724628,5.7201443,0,5.5228982,0,5.2270293L0,1.2821015C0,0.59173906,0.49311596,0,1.1834784,0L14.300364,0C14.596233,0,14.892103,0.098623216,15.187972,0.29586953C15.483841,0.49311572,15.582464,0.78898549,15.582464,1.1834784L15.582464,12.327899C15.582464,12.623769,15.483841,12.919639,15.286594,13.215508C15.089349,13.511376,14.694856,13.61,14.398987,13.61Z" fill="#000000" fill-opacity="1" style="mix-blend-mode:passthrough"/><path d="M9.1719561,12.486500225L9.1719561,7.061435525L0.98623168,7.061435525L0.98623168,12.486500225L9.1719561,12.486500225ZM9.1719561,13.472732025L0.88760871,13.472732025C0.29586953,13.472732025,0,13.078239925,0,12.585124024999999L0,7.062225585C0,6.470486075,0.39449275,6.173828125,0.88760871,6.173828125L9.1719561,6.173828125C9.7636957,6.173828125,10.059565,6.568320515,10.059565,7.062225585L10.059565,12.585124924999999C10.158188,13.078240825,9.7636948,13.472733025,9.1719561,13.472732025Z" fill="#000000" fill-opacity="1" style="mix-blend-mode:passthrough"/></svg>