<svg xmlns="http://www.w3.org/2000/svg" xmlns:xlink="http://www.w3.org/1999/xlink" fill="none" version="1.1" width="32" height="32" viewBox="0 0 32 32"><defs><clipPath id="master_svg0_1820_73331"><rect x="0" y="0" width="32" height="32" rx="0"/></clipPath><mask id="master_svg1_1820_73336" style="mask-type:alpha" maskUnits="objectBoundingBox"><g><g><path d="M10,0C10,0,22,0,22,0C27.522848,0,32,4.4771523,32,10C32,10,32,22,32,22C32,27.522848,27.522848,32,22,32C22,32,10,32,10,32C4.4771523,32,0,27.522848,0,22C0,22,0,10,0,10C0,4.4771523,4.4771523,0,10,0Z" fill="#000000" fill-opacity="1"/></g></g></mask></defs><g clip-path="url(#master_svg0_1820_73331)"><g mask="url(#master_svg1_1820_73336)"><g><g><path d="M10,0C10,0,22,0,22,0C27.522848,0,32,4.4771523,32,10C32,10,32,22,32,22C32,27.522848,27.522848,32,22,32C22,32,10,32,10,32C4.4771523,32,0,27.522848,0,22C0,22,0,10,0,10C0,4.4771523,4.4771523,0,10,0Z" fill="#0066FF" fill-opacity="1"/></g><g><path d="M11.194999488024902,22.52300107043457C10.750999448024903,22.52300107043457,10.401999538024903,22.42066707043457,10.147999528024902,22.216000070434568C9.893999518024902,22.01133207043457,9.767332739134902,21.73033207043457,9.767999405823703,21.37299907043457C9.767999405823703,20.90499907043457,9.911666778024902,20.41433207043457,10.199000118024902,19.900999070434573C10.492333408024903,19.38433307043457,10.912332788024901,18.90100007043457,11.458999388024903,18.45100017043457C12.005665988024901,18.001000370434568,12.662332988024902,17.63733387043457,13.428999688024902,17.360000570434572C14.195666288024903,17.07666727043457,15.052666188024903,16.93499897043457,15.999999488024901,16.93499897043457C16.9526662880249,16.93499897043457,17.809332888024905,17.07666727043457,18.5699996880249,17.360000570434572C19.336666088024902,17.63800047043457,19.991333788024903,18.00166707043457,20.534000788024905,18.45100017043457C21.080667788024904,18.90100007043457,21.500667788024902,19.38433307043457,21.794000788024903,19.900999070434573C22.0866667880249,20.41433207043457,22.2329997880249,20.905333070434573,22.2329997880249,21.37400007043457C22.2329997880249,21.73000007043457,22.1063337880249,22.01066607043457,21.8530007880249,22.216000070434568C21.6023337880249,22.42066707043457,21.2529997880249,22.52300107043457,20.805000788024902,22.52300107043457C20.805000788024902,22.52300107043457,11.194999488024902,22.52300107043457,11.194999488024902,22.52300107043457ZM15.999999488024901,15.652999370434571C15.467211688024904,15.657646170434571,14.944958688024903,15.50455477043457,14.498999088024902,15.21299987043457C14.042444188024902,14.91755917043457,13.667049388024903,14.51259947043457,13.406999388024902,14.03499937043457C13.134249188024903,13.52616687043457,12.995558788024901,12.95626167043457,13.003999488024903,12.37899927043457C13.003999488024903,11.78366587043457,13.138332588024902,11.241666270434571,13.406999388024902,10.75299977043457C13.667258988024901,10.27924137043457,14.043287788024902,9.879130360434571,14.499999488024901,9.58999968043457C14.948140588024902,9.30483055043457,15.468825388024904,9.15452570563457,15.999999488024901,9.156999112396571C16.5466661880249,9.156999112396571,17.047333688024903,9.30099928043457,17.502000288024902,9.58899927043457C17.958268188024903,9.87514305043457,18.3335494880249,10.27349337043457,18.591999088024902,10.74599977043457C18.865332588024902,11.23399977043457,19.0020007880249,11.77366587043457,19.0020007880249,12.36499927043457C19.0020007880249,12.98033257043457,18.865332588024902,13.53699927043457,18.591999088024902,14.03499937043457C18.323332788024903,14.528332670434569,17.962333688024902,14.92133237043457,17.5090002880249,15.21399927043457C17.055000288024903,15.50733277043457,16.551999588024902,15.65399977043457,15.999999488024901,15.65399977043457" fill="#FFFFFF" fill-opacity="1"/></g></g></g></g></svg>