<svg xmlns="http://www.w3.org/2000/svg" xmlns:xlink="http://www.w3.org/1999/xlink" fill="none" version="1.1" width="10.326708793640137" height="13.446817398071289" viewBox="0 0 10.326708793640137 13.446817398071289"><g><path d="M6.4351749,4.4749656Q6.4641523,4.5769258,6.5138617,4.6705456Q6.563571,4.7641654,6.6318026,4.845284Q6.7000332,4.9264021,6.7837539,4.9914131Q6.8674746,5.0564251,6.9629636,5.1024408L8.4572992,5.8225517Q8.4888916,5.8377762,8.5193396,5.8551755Q8.5497875,5.8725748,8.5789404,5.8920641Q8.6080952,5.9115543,8.6358118,5.9330382Q8.6635294,5.9545221,8.6896734,5.9778953Q8.7158175,6.0012684,8.7402601,6.0264149Q8.7647018,6.0515623,8.787323,6.0783596Q8.8099442,6.1051579,8.8306332,6.1334739Q8.8513212,6.1617899,8.8699751,6.1914859Q8.8886299,6.2211819,8.9051571,6.2521114Q8.9216843,6.2830415,8.9360046,6.3150525Q8.950326,6.347064,8.962369,6.3800001Q8.974412,6.4129362,8.9841175,6.4466352Q8.993824,6.4803343,9.0011454,6.5146298Q9.0084667,6.5489254,9.0133677,6.5836496Q9.0182695,6.6183748,9.0207272,6.6533575Q9.0231838,6.6883402,9.0231829,6.7234087Q9.0231838,6.7584777,9.0207272,6.7934599Q9.0182705,6.8284426,9.0133686,6.8631668Q9.0084686,6.897892,9.0011463,6.9321876Q8.993825,6.9664836,8.9841185,7.0001822Q8.9744129,7.0338812,8.9623699,7.0668168Q8.9503269,7.0997529,8.9360065,7.1317639Q8.9216862,7.1637759,8.905159,7.1947055Q8.8886318,7.2256355,8.869977,7.255331Q8.8513231,7.285027,8.8306351,7.313343Q8.8099461,7.3416595,8.7873249,7.3684564Q8.7647038,7.3952541,8.740262,7.4204016Q8.7158194,7.4455481,8.6896753,7.4689207Q8.6635303,7.4922938,8.6358137,7.5137782Q8.6080961,7.5352621,8.5789413,7.5547514Q8.5497875,7.5742416,8.5193405,7.5916414Q8.4888926,7.6090412,8.4573002,7.6242647L6.9629636,8.3443766Q6.8674736,8.3903913,6.7837534,8.4554033Q6.7000322,8.5204144,6.6318016,8.6015329Q6.56357,8.6826515,6.5138617,8.7762709Q6.4641523,8.8698902,6.4351749,8.9718513L6.1252604,10.062302Q6.1141996,10.101215,6.1000323,10.139111Q6.085865,10.177005,6.0686836,10.213632Q6.0515008,10.250257,6.0314159,10.285376Q6.0113316,10.320494,5.9884758,10.353876Q5.9656196,10.387257,5.9401417,10.418682Q5.9146643,10.450108,5.8867316,10.479374Q5.858798,10.508638,5.8285923,10.535551Q5.7983866,10.562464,5.7661057,10.586849Q5.7338243,10.611234,5.6996789,10.632932Q5.6655335,10.65463,5.6297474,10.673499Q5.5939603,10.692367,5.5567665,10.708282Q5.5195727,10.724198,5.4812155,10.737059Q5.4428568,10.749917,5.4035859,10.759636Q5.3643141,10.769354,5.3243866,10.775869Q5.2844582,10.782383,5.2441339,10.785652Q5.2038097,10.788919,5.1633539,10.78892Q5.1228971,10.788919,5.0825734,10.785651Q5.0422497,10.782384,5.0023222,10.77587Q4.9623933,10.769355,4.9231215,10.759636Q4.8838501,10.749917,4.8454928,10.737059Q4.8071346,10.724198,4.7699404,10.708282Q4.7327471,10.692367,4.6969609,10.673499Q4.6611738,10.65463,4.6270285,10.632932Q4.5928831,10.611234,4.5606022,10.586849Q4.5283208,10.562464,4.4981151,10.535551Q4.4679093,10.508638,4.4399767,10.479374Q4.4120431,10.450108,4.3865652,10.418682Q4.3610878,10.387257,4.338232,10.353876Q4.3153763,10.320494,4.2952914,10.285376Q4.275207,10.250257,4.2580252,10.213633Q4.2408428,10.177006,4.2266755,10.139111Q4.2125082,10.101215,4.2014484,10.062302L3.8915339,8.9718513Q3.8625555,8.8698902,3.8128464,8.7762709Q3.7631373,8.6826515,3.6949065,8.6015329Q3.6266751,8.5204144,3.5429547,8.4554024Q3.4592342,8.3903913,3.3637452,8.3443766L1.8694088,7.6242647Q1.8378172,7.6090412,1.8073692,7.5916414Q1.7769215,7.5742416,1.7477672,7.5547514Q1.7186131,7.5352621,1.6908958,7.5137777Q1.6631787,7.4922938,1.6370345,7.4689207Q1.6108904,7.4455481,1.5864478,7.4204006Q1.5620052,7.3952537,1.5393841,7.3684559Q1.5167632,7.3416586,1.4960752,7.3133426Q1.4753869,7.2850266,1.4567329,7.2553306Q1.4380791,7.2256351,1.4215512,7.1947055Q1.4050236,7.1637754,1.390703,7.1317635Q1.3763826,7.0997524,1.3643397,7.0668168Q1.3522968,7.0338812,1.3425907,7.0001822Q1.3328847,6.9664836,1.325563,6.932188Q1.3182414,6.897892,1.3133402,6.8631668Q1.3084393,6.8284426,1.3059826,6.7934604Q1.303526,6.7584777,1.303526,6.7234087Q1.303526,6.6883402,1.3059826,6.6533575Q1.3084393,6.6183748,1.3133402,6.5836496Q1.3182414,6.5489254,1.3255631,6.5146298Q1.3328847,6.4803338,1.3425907,6.4466348Q1.3522968,6.4129362,1.3643396,6.3800001Q1.3763826,6.3470645,1.390703,6.315053Q1.4050236,6.283042,1.4215515,6.2521119Q1.4380791,6.2211823,1.4567329,6.1914864Q1.4753869,6.1617908,1.496075,6.1334743Q1.5167632,6.1051579,1.5393841,6.0783596Q1.5620052,6.0515628,1.5864477,6.0264158Q1.6108904,6.0012689,1.6370345,5.9778957Q1.6631787,5.9545231,1.690896,5.9330387Q1.7186131,5.9115543,1.7477672,5.8920641Q1.7769215,5.8725748,1.8073692,5.855175Q1.8378172,5.8377762,1.8694088,5.8225517L3.3637447,5.1024408Q3.4592338,5.0564246,3.5429542,4.9914131Q3.6266747,4.9264011,3.694906,4.8452835Q3.7631369,4.7641649,3.8128459,4.6705451Q3.862555,4.5769253,3.8915334,4.4749656L4.2014484,3.3845139Q4.2125082,3.3455987,4.2266755,3.3077044Q4.2408428,3.26981,4.2580252,3.2331841Q4.2752075,3.1965578,4.2952919,3.1614392Q4.3153763,3.1263208,4.3382325,3.0929399Q4.3610878,3.0595584,4.3865657,3.0281327Q4.4120436,2.996707,4.4399767,2.967442Q4.4679093,2.9381766,4.4981151,2.9112639Q4.5283208,2.8843508,4.5606022,2.859966Q4.5928831,2.8355808,4.6270285,2.8138831Q4.6611738,2.7921855,4.6969609,2.7733173Q4.7327471,2.7544487,4.7699409,2.7385328Q4.8071346,2.7226169,4.8454933,2.7097578Q4.8838506,2.696898,4.9231219,2.6871791Q4.9623933,2.6774604,5.0023222,2.6709459Q5.0422497,2.6644311,5.0825734,2.6611629Q5.1228971,2.6578951,5.1633539,2.6578951Q5.2038097,2.6578951,5.2441339,2.6611629Q5.2844577,2.6644311,5.3243861,2.6709459Q5.3643141,2.6774604,5.4035854,2.6871793Q5.4428568,2.696898,5.481215,2.7097576Q5.5195723,2.7226167,5.556766,2.7385325Q5.5939598,2.7544484,5.6297464,2.7733173Q5.6655326,2.7921855,5.6996784,2.8138833Q5.7338238,2.8355808,5.7661052,2.859966Q5.7983856,2.8843508,5.8285918,2.9112637Q5.8587976,2.9381769,5.8867311,2.9674423Q5.9146638,2.996707,5.9401417,3.0281327Q5.9656191,3.0595584,5.9884758,3.0929399Q6.0113316,3.1263208,6.0314159,3.1614394Q6.0515008,3.196558,6.0686836,3.2331843Q6.085865,3.2698102,6.1000323,3.3077044Q6.1141996,3.3455987,6.1252599,3.3845139L6.4351749,4.4749656Z" fill="#0256FF" fill-opacity="1"/></g></svg>