<svg xmlns="http://www.w3.org/2000/svg" xmlns:xlink="http://www.w3.org/1999/xlink" fill="none" version="1.1" width="23.78650665283203" height="24" viewBox="0 0 23.78650665283203 24"><path d="M14.793565,10.638276C15.232016,9.6406708,15.446802,8.5591888,15.422847,7.469748C15.354489,3.2567713,11.830106,-0.088679306,7.567872,0.0017926026C3.3086541,0.091259442,-0.079016976,3.5683973,0.0014025416,7.7833838C0.079811782,11.914935,3.4785404,15.210124,7.6271815,15.252344L7.7920418,15.251339L6.7063789,13.408727C3.9359267,12.940284,1.8148626,10.600076,1.7605796,7.7492051C1.6992598,4.5103102,4.3098774,1.8303308,7.6050663,1.760969C10.898246,1.6906021,13.611398,4.2660365,13.663671,7.5009103C13.670707,7.8597822,13.646582,8.2106123,13.590288,8.5534L14.793565,10.638276ZM14.341864,23.688366C14.736924,23.896452,15.184257,23.999994,15.618523,23.999994C16.090986,24.000996,16.564459,23.88439,16.985655,23.625034L22.429049,20.511793C23.713623,19.776705,24.165443,18.143499,23.441328,16.852707L20.746269,11.454548L20.733202,11.429418L20.720133,11.402276C20.065424,10.318786,18.704153,9.8956823,17.5506,10.417137L13.96188,12.142136L12.094137,8.9504862C11.724618,8.3253584,11.125433,7.8693871,10.424428,7.6798587C9.7189989,7.4884901,8.9663668,7.5865493,8.3335209,7.9522796C7.0230412,8.6868095,6.572227,10.354914,7.3343081,11.649566L10.161055,16.462673C9.0572958,16.501877,8.0309429,17.189465,7.6368871,18.239944L7.6238189,18.280155L7.597683,18.370626C7.1792636,19.635435,7.7206669,21.018929,8.886405,21.663807L8.951746,21.704018L14.341864,23.688366ZM15.118917,22.014639L9.7539301,20.02928C9.3990803,19.782995,9.2412586,19.342695,9.3990803,18.952663L9.4252167,18.875257C9.5699711,18.524429,10.003231,18.278143,10.385224,18.34248L13.934739,19.186882L8.9648142,10.73982C8.72227,10.327278,8.8643551,9.7960434,9.2804613,9.5596647C9.4776678,9.4399042,9.7156639,9.4071522,9.937891,9.4691935C10.162166,9.5227404,10.353225,9.6688643,10.463634,9.8712912L13.211969,14.580858L18.339716,12.115001C18.610123,11.995235,18.927479,12.088825,19.089628,12.336154L21.771618,17.720238L21.797754,17.772511C22.031359,18.182148,21.890345,18.703545,21.482109,18.939596L16.038715,22.053843C15.771749,22.196455,15.451227,22.196455,15.184258,22.053843L15.118917,22.014639Z" fill-rule="evenodd" fill="#E2E3E4" fill-opacity="1" style="mix-blend-mode:passthrough"/></svg>
