<svg xmlns="http://www.w3.org/2000/svg" xmlns:xlink="http://www.w3.org/1999/xlink" fill="none" version="1.1" width="17" height="16" viewBox="0 0 17 16"><defs><clipPath id="master_svg0_1740_49617"><rect x="0" y="0" width="17" height="16" rx="0"/></clipPath></defs><g clip-path="url(#master_svg0_1740_49617)"><g><path d="M12.72299955024414,4.413000101893311C12.80799965024414,4.09899997709331,13.205999350244142,3.9869999918933106,13.27899935024414,4.25699997189331L13.70699975024414,5.85200022189331C13.731999350244141,5.945000121893311,13.80599975024414,6.002000321893311,13.90199945024414,6.003000221893311L15.55299945024414,6.020000421893311C15.832999250244141,6.0230002218933105,15.82299995024414,6.4370003218933105,15.539999950244141,6.598000521893311L13.866999650244141,7.550000621893311C13.767545650244141,7.60845372189331,13.69447325024414,7.703018221893311,13.663000150244141,7.81400062189331L13.15700055024414,9.67100052189331C13.072000550244141,9.98500062189331,12.673000350244141,10.098000521893312,12.60100075024414,9.82800002189331L12.173000350244141,8.23299982189331C12.151443450244141,8.14317222189331,12.07036495024414,8.08038802189331,11.978000650244141,8.08199982189331L10.32700062024414,8.06499962189331C10.04700088524414,8.06199932189331,10.05700016024414,7.64799972189331,10.34000015024414,7.486999521893311L12.01300045024414,6.534999321893311C12.11245445024414,6.476546321893311,12.185526850244141,6.381982321893311,12.217000950244142,6.270999421893311L12.72299955024414,4.413000101893311Z" fill="#000000" fill-opacity="1" style="mix-blend-mode:passthrough"/></g><g><path d="M11.164999746322632,1.3860000371932983L11.164999746322632,5.347999937193299L7.679999846322632,6.402999737193299L7.679999846322632,14.058001037193298L12.654999446322632,12.511001037193298L12.654999446322632,10.621000637193298L13.654999446322632,10.2530006371933L13.654999446322632,13.247000037193299L6.679999846322632,15.417000037193299L6.679999846322632,12.604000037193298L3.690999746322632,13.5640000371933L3.690999746322632,3.609000037193298L11.164999746322632,1.3870000838932983L11.164999746322632,1.3860000371932983ZM6.679999846322632,11.554000037193298L6.679999846322632,5.659999737193298L10.164999746322632,4.604999937193298L10.164999746322632,2.7249999371932985L4.690000056322631,4.353999937193299L4.690000056322631,12.193001037193298L6.679999846322632,11.554000037193298L6.679999846322632,11.554000037193298Z" fill="#000000" fill-opacity="1" style="mix-blend-mode:passthrough"/></g></g></svg>